<svg width="285" height="285" viewBox="0 0 285 285" fill="none" xmlns="http://www.w3.org/2000/svg">
<g id="chevron-up 1" clip-path="url(#clip0)">
<g id="Group">
<g id="Group_2">
<path id="Vector-l"  d="M17.128 163.306C19.031 165.208 21.221 166.16 23.695 166.16C26.169 166.16 28.359 165.208 30.262 163.306L142.466 51.1L254.674 163.306C256.576 165.208 258.767 166.16 261.237 166.16C263.715 166.16 265.905 165.208 267.807 163.306L282.081 149.029C283.983 147.127 284.928 144.936 284.928 142.466C284.928 139.991 283.977 137.801 282.081 135.899L149.028 2.853C147.127 0.947 144.94 0 142.466 0C139.992 0 137.801 0.95 135.899 2.853L2.856 135.898C0.95 137.801 0 139.988 0 142.468C0 144.936 0.953 147.126 2.856 149.029L17.128 163.306Z" fill="url(#paint0_linear)"/>
<path id="Vector-u"  d="M149.028 112.489C147.127 110.583 144.94 109.633 142.466 109.633C139.992 109.633 137.801 110.586 135.899 112.489L2.856 245.534C0.95 247.437 0 249.626 0 252.104C0 254.576 0.953 256.765 2.856 258.668L17.128 272.944C19.031 274.847 21.221 275.792 23.695 275.792C26.169 275.792 28.359 274.841 30.262 272.944L142.466 160.735L254.674 272.944C256.576 274.847 258.767 275.796 261.237 275.796C263.715 275.796 265.905 274.848 267.807 272.944L282.081 258.668C283.983 256.765 284.928 254.575 284.928 252.104C284.928 249.626 283.977 247.437 282.081 245.534L149.028 112.489Z" fill="url(#paint1_linear)"/>
</g>
</g>
</g>
<defs>
<linearGradient id="paint0_linear" x1="142.464" y1="0" x2="142.464" y2="166.16" gradientUnits="userSpaceOnUse">
<stop stop-color="#343030"/>
<stop offset="1" stop-color="#DC95A5"/>
</linearGradient>
<linearGradient id="paint1_linear" x1="142.464" y1="109.633" x2="142.464" y2="275.796" gradientUnits="userSpaceOnUse">
<stop stop-color="#343030"/>
<stop offset="1" stop-color="#DC95A5"/>
</linearGradient>
<clipPath id="clip0">
<rect width="284.929" height="284.929" fill="white"/>
</clipPath>
</defs>
</svg>
