<svg width="258" height="230" viewBox="0 0 258 230" fill="none" xmlns="http://www.w3.org/2000/svg">
<g id="icons8-breaking-bad 1">
<g id="surface9569613">
<g id="upper-r">
<path d="M108.844 64.6875V71.875C104.009 71.875 100.781 73.6719 100.781 79.7784V93.4375H92.7188V64.6875H100.781V69.3622C102.387 66.1194 104.812 64.6875 108.844 64.6875Z" fill="url(#paint0_linear)"/>
<path d="M108.844 64.6875V71.875C104.009 71.875 100.781 73.6719 100.781 79.7784V93.4375H92.7188V64.6875H100.781V69.3622C102.387 66.1194 104.812 64.6875 108.844 64.6875Z" fill="url(#paint1_linear)"/>
</g>
<g id="upper-B">
<path d="M86.1207 75.2441C84.4358 73.5034 82.0107 72.24 79.0188 71.875C82.7194 70.2325 84.6562 67.3126 84.6562 61.8097C84.6562 55.3381 78.7354 50.3125 71.476 50.3125H52.4062V93.4375H71.35C80.625 93.4375 88.6875 91.2756 88.6875 81.5753C88.6875 79.259 87.7742 76.9989 86.1207 75.2441ZM60.4688 57.5H69.9642C74.5309 57.5 76.4205 59.6619 76.4205 62.8906C76.4205 66.8494 73.3813 68.2812 69.9642 68.2812H60.4688V57.5ZM71.413 86.25H60.4688V75.4688H71.413C76.1056 75.4688 79.2393 76.8585 79.2393 81.0278C79.2393 84.8602 76.4993 86.25 71.413 86.25Z" fill="url(#paint2_linear)"/>
<path d="M86.1207 75.2441C84.4358 73.5034 82.0107 72.24 79.0188 71.875C82.7194 70.2325 84.6562 67.3126 84.6562 61.8097C84.6562 55.3381 78.7354 50.3125 71.476 50.3125H52.4062V93.4375H71.35C80.625 93.4375 88.6875 91.2756 88.6875 81.5753C88.6875 79.259 87.7742 76.9989 86.1207 75.2441ZM60.4688 57.5H69.9642C74.5309 57.5 76.4205 59.6619 76.4205 62.8906C76.4205 66.8494 73.3813 68.2812 69.9642 68.2812H60.4688V57.5ZM71.413 86.25H60.4688V75.4688H71.413C76.1056 75.4688 79.2393 76.8585 79.2393 81.0278C79.2393 84.8602 76.4993 86.25 71.413 86.25Z" fill="url(#paint3_linear)"/>
</g>
<g id="bottom-B">
<path d="M178.839 161.494C177.155 159.753 174.729 158.49 171.738 158.125C175.438 156.483 177.375 153.563 177.375 148.06C177.375 141.588 171.454 136.562 164.195 136.562H145.125V179.688H164.069C173.344 179.688 181.406 177.526 181.406 167.825C181.406 165.509 180.493 163.249 178.839 161.494ZM153.188 143.75H162.683C167.25 143.75 169.139 145.912 169.139 149.141C169.139 153.099 166.1 154.531 162.683 154.531H153.188V143.75ZM164.132 172.5H153.188V161.719H164.132C168.824 161.719 171.958 163.109 171.958 167.278C171.958 171.11 169.218 172.5 164.132 172.5Z" fill="url(#paint4_linear)"/>
<path d="M178.839 161.494C177.155 159.753 174.729 158.49 171.738 158.125C175.438 156.483 177.375 153.563 177.375 148.06C177.375 141.588 171.454 136.562 164.195 136.562H145.125V179.688H164.069C173.344 179.688 181.406 177.526 181.406 167.825C181.406 165.509 180.493 163.249 178.839 161.494ZM153.188 143.75H162.683C167.25 143.75 169.139 145.912 169.139 149.141C169.139 153.099 166.1 154.531 162.683 154.531H153.188V143.75ZM164.132 172.5H153.188V161.719H164.132C168.824 161.719 171.958 163.109 171.958 167.278C171.958 171.11 169.218 172.5 164.132 172.5Z" fill="url(#paint5_linear)"/>
</g>
<path id="Vector" d="M133.031 111.406V25.1562H28.2188V118.594H124.969V204.844H229.781V111.406H133.031ZM36.2812 111.406V32.3438H124.969V111.406H36.2812ZM221.719 197.656H133.031V118.594H221.719V197.656Z" fill="url(#paint6_linear)"/>
<g id="bottom-a">
<path d="M209.625 158.125C209.625 152.805 203.169 150.938 197.531 150.938C192.445 150.938 187.737 153.001 186.839 158.125H193.154C193.768 156.89 195.059 156.328 197.531 156.328C200.35 156.328 202.807 157.451 202.807 159.206V159.922C201.2 160.638 193.547 162.435 193.547 162.435C189.91 163.151 185.438 165.677 185.438 171.068C185.438 176.459 189.91 179.688 194.744 179.688C197.972 179.688 200.791 178.607 203.216 176.459C203.216 177.175 203.169 178.789 203.169 179.688H209.625C209.625 178.972 209.625 158.125 209.625 158.125ZM201.562 169.678C201.562 172.921 198.885 174.128 196.618 174.128C194.807 174.128 192.492 172.921 192.492 170.9C192.492 168.878 194.839 167.853 196.712 167.166C196.712 167.166 201.106 165.635 201.562 166.042V169.678Z" fill="url(#paint7_linear)"/>
<path d="M209.625 158.125C209.625 152.805 203.169 150.938 197.531 150.938C192.445 150.938 187.737 153.001 186.839 158.125H193.154C193.768 156.89 195.059 156.328 197.531 156.328C200.35 156.328 202.807 157.451 202.807 159.206V159.922C201.2 160.638 193.547 162.435 193.547 162.435C189.91 163.151 185.438 165.677 185.438 171.068C185.438 176.459 189.91 179.688 194.744 179.688C197.972 179.688 200.791 178.607 203.216 176.459C203.216 177.175 203.169 178.789 203.169 179.688H209.625C209.625 178.972 209.625 158.125 209.625 158.125ZM201.562 169.678C201.562 172.921 198.885 174.128 196.618 174.128C194.807 174.128 192.492 172.921 192.492 170.9C192.492 168.878 194.839 167.853 196.712 167.166C196.712 167.166 201.106 165.635 201.562 166.042V169.678Z" fill="url(#paint8_linear)"/>
</g>
</g>
</g>
<defs>
<linearGradient id="paint0_linear" x1="100.781" y1="64.6875" x2="100.781" y2="93.4375" gradientUnits="userSpaceOnUse">
<stop stop-color="#F2DCE1"/>
<stop offset="1" stop-color="#6D6666"/>
</linearGradient>
<linearGradient id="paint1_linear" x1="100.781" y1="64.6875" x2="100.781" y2="93.4375" gradientUnits="userSpaceOnUse">
<stop stop-color="white"/>
<stop offset="1" stop-color="white" stop-opacity="0"/>
</linearGradient>
<linearGradient id="paint2_linear" x1="70.5469" y1="50.3125" x2="70.5469" y2="93.4375" gradientUnits="userSpaceOnUse">
<stop stop-color="#F2DCE1"/>
<stop offset="1" stop-color="#6D6666"/>
</linearGradient>
<linearGradient id="paint3_linear" x1="70.5469" y1="50.3125" x2="70.5469" y2="93.4375" gradientUnits="userSpaceOnUse">
<stop stop-color="white"/>
<stop offset="1" stop-color="white" stop-opacity="0"/>
</linearGradient>
<linearGradient id="paint4_linear" x1="163.266" y1="136.562" x2="163.266" y2="179.687" gradientUnits="userSpaceOnUse">
<stop stop-color="#F2DCE1"/>
<stop offset="1" stop-color="#6D6666"/>
</linearGradient>
<linearGradient id="paint5_linear" x1="163.266" y1="136.562" x2="163.266" y2="179.688" gradientUnits="userSpaceOnUse">
<stop stop-color="white"/>
<stop offset="1" stop-color="white" stop-opacity="0"/>
</linearGradient>
<linearGradient id="paint6_linear" x1="129" y1="25.1563" x2="129" y2="204.844" gradientUnits="userSpaceOnUse">
<stop stop-color="#D38B9C"/>
<stop offset="1" stop-color="#333030"/>
</linearGradient>
<linearGradient id="paint7_linear" x1="197.531" y1="150.937" x2="197.531" y2="179.687" gradientUnits="userSpaceOnUse">
<stop stop-color="#F2DCE1"/>
<stop offset="1" stop-color="#6D6666"/>
</linearGradient>
<linearGradient id="paint8_linear" x1="197.531" y1="150.938" x2="197.531" y2="179.688" gradientUnits="userSpaceOnUse">
<stop stop-color="white"/>
<stop offset="1" stop-color="white" stop-opacity="0"/>
</linearGradient>
</defs>
</svg>
